<svg version="1.2" xmlns="http://www.w3.org/2000/svg" viewBox="0 0 55 55" width="55" height="55">
	<title>print_transparent-svg</title>
	<style>
		.s0 { fill: none } 
		.s1 { fill: #37b6ff } 
		.s2 { fill: #346cc4 } 
		.s3 { fill: #2e3192 } 
		.s4 { fill: #24265d } 
	</style>
	<g id="background-logo">
		<path id="Layer" class="s0" d="m-613-485h1280v1024h-1280z"/>
	</g>
	<g id="logo-logo">
		<g id="Layer">
			<g id="Layer">
				<path id="Layer" class="s1" d="m10.4 23.3l-4.1 4.1-5.3 5.3c3 1.5 6.6 1 9.1-1.5l4.1-4.1 5.3-5.3c-3-1.4-6.6-1-9.1 1.5z"/>
			</g>
			<g id="Layer">
				<path id="Layer" class="s2" d="m21.6 23.3l4 4.1 5.3 5.3c-2.9 1.5-6.6 1-9.1-1.5l-4.1-4.1-5.3-5.3c3-1.4 6.7-1 9.2 1.5z"/>
			</g>
			<g id="Layer">
				<path id="Layer" class="s3" d="m33.3 23.3l-4.1 4.1-5.3 5.3c2.9 1.5 6.6 1 9.1-1.5l4.1-4.1 5.3-5.3c-3-1.4-6.7-1-9.1 1.5z"/>
			</g>
			<g id="Layer">
				<path id="Layer" class="s4" d="m44.4 23.3l4.1 4.1 5.3 5.3c-2.9 1.5-6.6 1-9.1-1.5l-4.1-4.1-5.3-5.3c3-1.4 6.7-1 9.1 1.5z"/>
			</g>
		</g>
	</g>
</svg>